<?xml version="1.0" encoding="UTF-8" standalone="no"?><!-- Generator: Gravit.io --><svg xmlns="http://www.w3.org/2000/svg" xmlns:xlink="http://www.w3.org/1999/xlink" style="isolation:isolate" viewBox="0 0 500 500" width="500pt" height="500pt"><defs><clipPath id="_clipPath_jZzYnZAaJX102uuKTwGXSiWga2qMPexC"><rect width="500" height="500"/></clipPath></defs><g clip-path="url(#_clipPath_jZzYnZAaJX102uuKTwGXSiWga2qMPexC)"><defs><linearGradient id="_lgradient_0" x1="0.011250000000000012" y1="0.01800000000000002" x2="1.0000000000000002" y2="0.9999999999999998"><stop offset="0%" style="stop-color:#CACED3"/><stop offset="61.30434782608696%" style="stop-color:#E2E6E6"/></linearGradient></defs><path d="M 60 0 L 440 0 C 473.115 0 500 26.885 500 60 L 500 440 C 500 473.115 473.115 500 440 500 L 60 500 C 26.885 500 0 473.115 0 440 L 0 60 C 0 26.885 26.885 0 60 0 Z" style="stroke:none;fill:url(#_lgradient_0);stroke-miterlimit:10;"/><path d=" M 115.34 342.402 C 142.149 321.945 155.964 293.682 163.701 261.766 C 148.17 285.607 129.663 306.687 107.517 324.38 L 93.057 278.924 C 116.317 264.151 133.495 240.064 144.991 207.28 C 128.036 230.637 109.348 250.015 91.082 254.765 C 66.63 74.988 77.59 295.866 83.839 317.205 C 68.864 307.056 55.867 292.903 44.794 274.858 C 49.904 305.616 62.84 332.142 97.1 347.135 C 116.113 379.542 151.371 403.67 178.547 420.098 C 7.373 401.133 -31.407 207.29 111.859 115.105 C 129.347 103.852 147.672 92.847 163.841 77.27 C 165.506 95.239 163.964 109.631 157.69 118.752 C 172.574 125 179.964 121.674 192.801 115.966 C 193.559 129.252 196.686 143.847 190.58 154.608 C 202.792 152.791 211.809 152.314 221.933 144.327 C 225.423 160.168 221.723 174.594 217.275 187.85 C 233.07 188.177 245.922 190.935 255.461 195.128 C 254.411 187.201 254.237 178.979 255.11 171.409 C 266.061 179.165 278.867 187.464 292.941 187.934 C 289.334 174.888 286.512 160.749 290.716 145.619 C 300.083 153.869 308.775 154.803 320.484 157.198 C 315.146 146.476 318.933 132.534 320.359 119.731 C 332.47 125.919 339.44 129.521 354.153 124.261 C 348.567 115.117 347.829 101.124 350.38 83.843 C 365.194 99.745 382.331 111.341 398.648 123.134 C 440.079 153.079 470.19 191.414 475.34 244.26 C 483.16 324.495 420.691 398.721 330.057 415.575 C 357.185 401.116 380.697 378.522 400.771 348.191 C 434.671 335.491 448.565 310.528 455.113 281.064 C 443.465 297.927 430.161 310.927 415.156 319.955 C 422.313 299.656 444.465 86.723 411.421 259.22 C 394.013 253.673 376.964 233.965 361.796 210.499 C 371.193 242.79 386.537 266.971 408.248 282.469 L 391.891 325.651 C 371.41 307.389 354.623 286.045 340.858 262.186 C 346.666 293.442 358.541 321.484 383.386 342.661 C 373.518 361.095 356.497 376.278 334.315 389.114 C 342.143 367.421 341.918 348.949 335.826 332.825 C 321.108 293.873 280.44 280.896 252.522 252.664 C 249.738 249.849 247.06 246.94 244.496 243.927 C 243.233 244.321 241.942 244.704 240.598 245.071 C 226.04 249.023 258.438 271.468 293.511 301.347 C 327.882 330.627 357.305 360.83 315.518 404.091 C 269.501 451.73 142.098 399.615 115.342 342.401 L 115.34 342.402 Z  M 178.145 94.478 C 200.207 84.41 224.731 78.797 250.565 78.797 C 281.259 78.797 310.104 86.716 335.167 100.623 C 335.155 103.253 335.245 105.792 335.448 108.236 C 335.544 109.401 335.666 110.549 335.815 111.676 C 333.038 110.757 330.175 109.293 326.735 107.536 L 326.714 107.525 L 326.735 107.482 L 326.619 107.422 C 319.822 103.964 311.507 106.671 308.05 113.467 C 307.171 115.193 306.691 117.019 306.574 118.836 C 306.338 120.818 305.99 123.205 305.64 125.599 C 305.024 129.808 304.407 134.039 304.09 138.271 C 302.624 137.449 301.21 136.464 299.836 135.254 C 294.113 130.216 285.388 130.772 280.351 136.496 C 278.682 138.393 277.627 140.62 277.171 142.932 C 274.892 151.625 274.473 159.991 275.129 168.045 C 270.948 165.677 266.88 162.896 263.044 160.18 C 256.843 155.799 248.264 157.273 243.883 163.472 C 242.5 165.429 241.701 167.623 241.449 169.847 L 241.4 169.841 C 241.149 172.008 240.975 174.223 240.872 176.465 C 238.99 176.101 237.058 175.772 235.073 175.486 C 235.527 173.359 235.922 171.197 236.239 168.998 C 237.504 160.226 237.56 151.031 235.429 141.356 L 235.374 141.368 C 234.941 139.395 234.067 137.487 232.731 135.796 C 228.022 129.834 219.369 128.82 213.407 133.529 C 211.676 134.895 209.907 135.944 208.069 136.775 C 208.012 132.156 207.589 127.513 207.168 122.897 C 206.968 120.706 206.768 118.52 206.605 115.851 C 206.591 114.029 206.214 112.178 205.433 110.404 C 202.363 103.429 194.219 100.263 187.243 103.333 L 187.119 103.387 L 187.132 103.413 L 187.066 103.441 C 183.1 105.204 179.848 106.649 176.69 107.418 C 176.964 106.031 177.202 104.611 177.401 103.162 C 177.781 100.397 178.027 97.498 178.149 94.475 L 178.145 94.478 Z " fill-rule="evenodd" fill="rgb(178,125,5)"/></g></svg>