<?xml version="1.0" encoding="UTF-8" standalone="no"?><!-- Generator: Gravit.io --><svg xmlns="http://www.w3.org/2000/svg" xmlns:xlink="http://www.w3.org/1999/xlink" style="isolation:isolate" viewBox="0 0 64 64" width="64pt" height="64pt"><defs><clipPath id="_clipPath_NewroNRDHjaDRtVMKJppOMGoJ63iztuO"><rect width="64" height="64"/></clipPath></defs><g clip-path="url(#_clipPath_NewroNRDHjaDRtVMKJppOMGoJ63iztuO)"><path d=" M 31.999 0.797 C 14.329 0.797 0 15.124 0 32.796 C 0 46.935 9.168 58.926 21.883 63.159 C 23.483 63.455 24.071 62.463 24.071 61.618 C 24.071 60.855 24.039 58.334 24.026 55.662 C 15.123 57.598 13.246 51.885 13.246 51.885 C 11.791 48.186 9.693 47.202 9.693 47.202 C 6.79 45.214 9.914 45.258 9.914 45.258 C 13.127 45.482 14.818 48.553 14.818 48.553 C 17.674 53.445 22.307 52.029 24.131 51.213 C 24.42 49.145 25.246 47.732 26.163 46.933 C 19.055 46.126 11.583 43.381 11.583 31.119 C 11.583 27.626 12.835 24.77 14.88 22.531 C 14.547 21.723 13.451 18.47 15.188 14.063 C 15.188 14.063 17.875 13.202 23.991 17.343 C 26.542 16.636 29.279 16.279 31.996 16.267 C 34.717 16.279 37.458 16.635 40.013 17.343 C 46.12 13.205 48.805 14.063 48.805 14.063 C 50.545 18.471 49.453 21.726 49.12 22.531 C 51.172 24.77 52.413 27.626 52.413 31.119 C 52.413 43.409 44.925 46.112 37.802 46.904 C 38.95 47.896 39.975 49.844 39.975 52.828 C 39.975 57.107 39.938 60.556 39.938 61.608 C 39.938 62.46 40.515 63.455 42.138 63.143 C 54.845 58.908 64.001 46.916 64.001 32.785 C 64.001 15.116 49.674 0.786 32.001 0.786 L 31.999 0.797 L 31.999 0.797 Z " fill-rule="evenodd" fill="rgb(178,125,5)"/></g></svg>