<?xml version="1.0" encoding="UTF-8" standalone="no"?><!-- Generator: Gravit.io --><svg xmlns="http://www.w3.org/2000/svg" xmlns:xlink="http://www.w3.org/1999/xlink" style="isolation:isolate" viewBox="0 0 3333 3333" width="3333pt" height="3333pt"><defs><clipPath id="_clipPath_u3oPlvSSGhVS6YPt1YQs8Vr4GIDdzYVC"><rect width="3333" height="3333"/></clipPath></defs><g clip-path="url(#_clipPath_u3oPlvSSGhVS6YPt1YQs8Vr4GIDdzYVC)"><path d=" M 1667 0 C 2587 0 3334 746 3334 1667 C 3334 2587 2588 3334 1667 3334 C 747 3334 0 2588 0 1667 C 0 747 746 0 1667 0 Z  M 2567 1108 C 2501 1138 2430 1157 2355 1166 C 2431 1120 2490 1048 2517 962 C 2446 1004 2366 1035 2283 1052 C 2215 980 2120 936 2013 936 C 1809 936 1644 1101 1644 1305 C 1644 1334 1647 1362 1653 1389 C 1346 1373 1074 1227 892 1003 C 859 1059 842 1123 842 1189 C 842 1317 907 1430 1006 1496 C 945 1494 889 1477 839 1450 L 839 1455 C 839 1634 966 1783 1135 1817 C 1104 1825 1071 1830 1038 1830 C 1014 1830 991 1828 968 1823 C 1015 1970 1151 2076 1313 2080 C 1186 2179 1028 2238 854 2238 C 824 2238 795 2236 766 2233 C 930 2338 1124 2399 1332 2399 C 2011 2399 2383 1836 2383 1348 C 2383 1332 2383 1316 2382 1300 C 2454 1248 2517 1183 2566 1109 L 2567 1108 Z " fill-rule="evenodd" fill="rgb(178,125,5)"/></g></svg>